<svg width="16" height="19" viewBox="0 0 16 19" fill="none" xmlns="http://www.w3.org/2000/svg">
<path d="M7.88037 9.67432C5.38428 9.67432 3.38037 7.67041 3.38037 5.17432C3.38037 2.71338 5.38428 0.674316 7.88037 0.674316C10.3413 0.674316 12.3804 2.71338 12.3804 5.17432C12.3804 7.67041 10.3413 9.67432 7.88037 9.67432ZM11.0093 10.7993C13.6108 10.7993 15.7554 12.9438 15.7554 15.5454V16.9868C15.7554 17.936 14.9819 18.6743 14.0679 18.6743H1.69287C0.743652 18.6743 0.00537109 17.936 0.00537109 16.9868V15.5454C0.00537109 12.9438 2.11475 10.7993 4.71631 10.7993H5.31396C6.0874 11.186 6.96631 11.3618 7.88037 11.3618C8.79443 11.3618 9.63818 11.186 10.4116 10.7993H11.0093Z" fill="white"/>
</svg>
